<?xml version="1.0" encoding="utf-8"?>
<!-- Generator: Adobe Illustrator 24.0.2, SVG Export Plug-In . SVG Version: 6.00 Build 0)  -->
<svg version="1.1" id="Layer_1" xmlns="http://www.w3.org/2000/svg" xmlns:xlink="http://www.w3.org/1999/xlink" x="0px" y="0px"
	 viewBox="0 0 72.3 25.3" enable-background="new 0 0 72.3 25.3" xml:space="preserve">
<g>
	<path fill="#878787" d="M17.2,19.9V9h-3.6v10.9H17.2z M22.6,19.9V9H19v10.9H22.6z M24.4,6.9L12.7,0L0.9,6.9c0,0-0.8,0.7,0,1.2h23.5
		C24.4,8.1,25.1,7.6,24.4,6.9L24.4,6.9z M11.8,19.9V9H8.1v10.9H11.8z M6.3,19.9V9H2.7v10.9H6.3z M23.6,21.2L2,21.2l-2,2.6v1.5h25.3
		v-1.5L23.6,21.2z M23.6,21.2"/>
	<g>
		<g>
			<path fill="#878787" d="M35.5,7.4c0,0.8-0.5,1.5-1.3,1.7c1,0.2,1.6,0.9,1.6,1.9c0,1.3-1.1,2.1-2.8,2.1h-3.5V5.5h3.4
				C34.5,5.5,35.5,6.2,35.5,7.4z M34,7.7c0-0.6-0.5-0.9-1.2-0.9h-1.9v1.9h1.9C33.5,8.6,34,8.3,34,7.7z M34.3,10.9c0-0.6-0.6-1-1.5-1
				h-1.9v2h1.9C33.7,11.9,34.3,11.5,34.3,10.9z"/>
			<path fill="#878787" d="M40.7,13.2v-0.7c-0.4,0.5-1.1,0.8-1.9,0.8c-1.3,0-2.1-0.8-2.1-1.8c0-1.1,0.8-1.8,2.2-1.8h1.7V9.5
				c0-0.7-0.5-1.1-1.3-1.1c-0.5,0-1.1,0.2-1.7,0.6l-0.5-1c0.8-0.5,1.5-0.7,2.6-0.7c1.5,0,2.4,0.8,2.4,2.1l0,3.9H40.7z M40.7,11.1
				v-0.5h-1.5c-0.8,0-1.1,0.2-1.1,0.7c0,0.5,0.4,0.8,1,0.8C39.9,12.1,40.6,11.7,40.7,11.1z"/>
			<path fill="#878787" d="M49.3,9.5v3.7h-1.4V9.9c0-0.8-0.5-1.3-1.3-1.3c-1,0-1.5,0.7-1.5,1.7v2.9h-1.4V7.3H45v1.1
				c0.4-0.8,1.2-1.1,2.1-1.2C48.5,7.2,49.3,8.1,49.3,9.5z"/>
			<path fill="#878787" d="M53.2,10.6l-0.9,0.9v1.6h-1.4V5h1.4v4.7l2.4-2.4h1.6l-2.2,2.3l2.3,3.6h-1.7L53.2,10.6z"/>
			<path fill="#878787" d="M34.9,15.5v1.3h-2.4v6.4H31v-6.4h-2.4v-1.3H34.9z"/>
			<path fill="#878787" d="M38.4,17.2v1.4c-1.2-0.1-2,0.6-2,1.7v2.8H35v-5.9h1.4v1.1C36.8,17.6,37.5,17.2,38.4,17.2z"/>
			<path fill="#878787" d="M42.8,23.2v-0.7c-0.4,0.5-1.1,0.8-1.9,0.8c-1.3,0-2.1-0.8-2.1-1.8c0-1.1,0.8-1.8,2.2-1.8h1.7v-0.2
				c0-0.7-0.5-1.1-1.3-1.1c-0.5,0-1.1,0.2-1.7,0.6l-0.5-1c0.8-0.5,1.5-0.7,2.6-0.7c1.5,0,2.4,0.8,2.4,2.1l0,3.9H42.8z M42.8,21.1
				v-0.5h-1.5c-0.8,0-1.1,0.2-1.1,0.7c0,0.5,0.4,0.8,1,0.8C42.1,22.1,42.7,21.7,42.8,21.1z"/>
			<path fill="#878787" d="M51.5,19.5v3.7H50v-3.3c0-0.8-0.5-1.3-1.3-1.3c-1,0-1.5,0.7-1.5,1.7v2.9h-1.4v-5.9h1.4v1.1
				c0.4-0.8,1.2-1.1,2.1-1.2C50.7,17.2,51.5,18.1,51.5,19.5z"/>
			<path fill="#878787" d="M54.8,18.3c-0.5,0-0.8,0.2-0.8,0.5c0,1,3.1,0.5,3.1,2.6c0,1.2-1.1,1.8-2.3,1.8c-0.9,0-1.8-0.3-2.4-0.8
				l0.5-1c0.5,0.5,1.4,0.7,2,0.7c0.5,0,0.9-0.2,0.9-0.6c0-1.1-3.1-0.5-3.1-2.6c0-1.2,1-1.8,2.2-1.8c0.8,0,1.6,0.2,2.2,0.6l-0.5,1
				C56,18.5,55.4,18.3,54.8,18.3z"/>
			<path fill="#878787" d="M60.1,16.9v0.6h1.5v1h-1.5v4.6h-1.4v-4.6h-0.8v-1h0.8V17c0-1.4,1-2,2.1-2c0.5,0,1,0.1,1.4,0.4l-0.5,1.1
				c-0.2-0.2-0.5-0.3-0.8-0.3C60.4,16.2,60.1,16.4,60.1,16.9z"/>
			<path fill="#878787" d="M67.7,20.7h-4.3c0.2,0.8,0.8,1.3,1.7,1.3c0.6,0,1.2-0.2,1.6-0.7l0.8,0.8c-0.6,0.6-1.4,1-2.5,1
				c-1.8,0-3-1.2-3-3c0-1.8,1.2-3,3-3C66.9,17.2,67.8,18.6,67.7,20.7z M66.4,19.8c0-0.9-0.6-1.4-1.5-1.4c-0.8,0-1.4,0.6-1.6,1.4
				H66.4z"/>
			<path fill="#878787" d="M72.3,17.2v1.4c-1.2-0.1-2,0.6-2,1.7v2.8h-1.4v-5.9h1.4v1.1C70.7,17.6,71.4,17.2,72.3,17.2z"/>
		</g>
	</g>
</g>
</svg>
