<svg xmlns="http://www.w3.org/2000/svg" xmlns:xlink="http://www.w3.org/1999/xlink" width="109.05" height="38.376" viewBox="0 0 109.05 38.376"><defs><style>.a{fill:url(#a);}</style><linearGradient id="a" x1="0.22" y1="1" x2="1.046" y2="1" gradientUnits="objectBoundingBox"><stop offset="0" stop-color="#002bbf"/><stop offset="1" stop-color="#000f42"/></linearGradient></defs><g transform="translate(-234.55 -254.624)"><path class="a" d="M13.731-8.372a3.87,3.87,0,0,0,2.139-3.542c0-2.507-2.07-4.186-6.1-4.186H1.909V0h8.326c4.232,0,6.44-1.61,6.44-4.393A3.976,3.976,0,0,0,13.731-8.372ZM9.315-13.294c1.817,0,2.806.621,2.806,1.886S11.132-9.5,9.315-9.5h-3.7v-3.8ZM9.959-2.806H5.612V-6.785H9.959c1.932,0,2.967.644,2.967,2C12.926-3.4,11.891-2.806,9.959-2.806ZM19.5,0H23.23V-16.1H19.5ZM30.383,0h3.726V-13.064h5.152V-16.1H25.231v3.036h5.152ZM48.737.276A8.272,8.272,0,0,0,55.384-2.6L52.992-4.807A5.131,5.131,0,0,1,48.944-2.9,4.939,4.939,0,0,1,43.792-8.05,4.939,4.939,0,0,1,48.944-13.2a5.18,5.18,0,0,1,4.048,1.886l2.392-2.208a8.312,8.312,0,0,0-6.624-2.852c-5.014,0-8.74,3.473-8.74,8.326S43.746.276,48.737.276Zm16.606,0c5.06,0,8.809-3.519,8.809-8.326s-3.749-8.326-8.809-8.326c-5.083,0-8.809,3.542-8.809,8.326S60.26.276,65.343.276Zm0-3.174A4.911,4.911,0,0,1,60.306-8.05,4.911,4.911,0,0,1,65.343-13.2,4.911,4.911,0,0,1,70.38-8.05,4.911,4.911,0,0,1,65.343-2.9ZM76.958,0h3.726V-16.1H76.958Zm18.63-16.1v9.775l-8-9.775H84.5V0h3.68V-9.775L96.209,0h3.059V-16.1Z" transform="translate(238 271)"/><path class="a" d="M24.65-17.5,20.575-5.1l-4-12.4h-3.75L8.7-5.2,4.75-17.5H.55L6.3,0h4.325L14.6-11.85,18.45,0H22.8l5.725-17.5ZM43.275,0h4.25L39.7-17.5h-4L27.9,0h4.15L33.6-3.75h8.125ZM34.9-6.825l2.775-6.7,2.775,6.7ZM49.35,0H62.175V-3.3H53.4V-17.5H49.35Zm15.1,0H77.275V-3.3H68.5V-17.5H64.45ZM83.575-3.25V-7.3H91.7v-3.15H83.575v-3.8h9.2V-17.5H79.55V0H93.1V-3.25ZM99.95,0H104V-14.2h5.6v-3.3H94.35v3.3h5.6Z" transform="translate(234 293)"/></g></svg>